<svg width="24" height="24" viewBox="0 0 24 24" fill="none" xmlns="http://www.w3.org/2000/svg">
<path d="M13.9475 5.07318C13.2466 5.77616 13.2466 6.91601 13.9475 7.619L15.2166 8.89191C15.4712 9.14728 15.7832 9.3099 16.1109 9.37978C16.4616 9.45456 16.7845 9.77059 16.6883 10.1163C16.2434 11.7154 15.3895 13.1703 14.2115 14.3365C13.0334 15.5028 11.5718 16.3401 9.97178 16.7653C9.683 16.842 9.42097 16.5757 9.37977 16.2796C9.32769 15.9054 9.15817 15.5445 8.87127 15.2568L7.60217 13.9838C6.90129 13.2808 5.76485 13.2808 5.06397 13.9838L2.52566 16.5297C1.82478 17.2327 1.82478 18.3726 2.52566 19.0755C3.0367 19.5881 3.52271 20.229 4.13983 20.6193C4.80193 21.0187 5.6668 20.9644 6.43948 20.99C7.71553 21.0323 9.70468 20.9469 10.9866 20.6062C13.2539 20.0036 15.3249 18.8171 16.9943 17.1645C18.6638 15.5119 19.8736 13.4504 20.5042 11.1844C20.9243 9.67415 21 8.36072 21 6.55509C21 5.65227 20.9873 4.76143 20.506 4.05708C20.4441 3.96664 20.3732 3.8806 20.2931 3.80026L19.024 2.52724C18.3231 1.82425 17.1866 1.82425 16.4858 2.52724L13.9475 5.07318Z" fill="white"/>
<path d="M10.036 17.0069L10.036 17.0069C9.79442 17.0711 9.57316 16.9867 9.41772 16.8498C9.26506 16.7154 9.16082 16.52 9.13215 16.314C9.08729 15.9917 8.94146 15.6812 8.69425 15.4333L8.69422 15.4333L7.42513 14.1603C7.42513 14.1603 7.42513 14.1603 7.42512 14.1603C6.82193 13.5553 5.8442 13.5553 5.24101 14.1603L2.7027 16.7062C2.0991 17.3116 2.0991 18.2936 2.7027 18.899C2.8472 19.044 2.99982 19.21 3.14978 19.3731C3.26047 19.4935 3.36972 19.6124 3.47319 19.72C3.73043 19.9876 3.98906 20.2277 4.27125 20.4066C4.55672 20.5781 4.89586 20.6583 5.27306 20.6961C5.53842 20.7226 5.8041 20.7271 6.07593 20.7318C6.19844 20.7339 6.32221 20.736 6.44776 20.7402C7.71538 20.7822 9.67575 20.696 10.9224 20.3646C13.1475 19.7732 15.18 18.6088 16.8184 16.9868L16.8184 16.9868C18.4569 15.3649 19.6444 13.3416 20.2633 11.1173C20.6744 9.63997 20.75 8.35342 20.75 6.55509C20.75 5.63712 20.7301 4.82816 20.2995 4.19813C20.2464 4.12033 20.1852 4.04618 20.116 3.9768L20.116 3.97677L18.8469 2.70374C18.2437 2.09875 17.266 2.09875 16.6628 2.70375L14.1245 5.24969C13.5209 5.8551 13.5209 6.83707 14.1245 7.44249L15.3936 8.7154C15.6131 8.93552 15.8813 9.0752 16.163 9.13527C16.3891 9.18348 16.607 9.30836 16.7572 9.48393L10.036 17.0069ZM10.036 17.0069C11.6783 16.5705 13.1783 15.7111 14.3874 14.5141M10.036 17.0069L14.3874 14.5141M14.3874 14.5141C15.5964 13.3173 16.4727 11.8243 16.9292 10.1833L14.3874 14.5141Z" stroke="white" stroke-opacity="0.3" stroke-width="0.5"/>
</svg>
